<?xml version="1.0" standalone="no"?>
<!DOCTYPE svg PUBLIC "-//W3C//DTD SVG 20010904//EN"
 "http://www.w3.org/TR/2001/REC-SVG-20010904/DTD/svg10.dtd">
<svg version="1.0" xmlns="http://www.w3.org/2000/svg"
 width="260.000000pt" height="260.000000pt" viewBox="0 0 260.000000 260.000000"
 preserveAspectRatio="xMidYMid meet">
<metadata>
Created by potrace 1.11, written by Peter Selinger 2001-2013
</metadata>
<g transform="translate(0.000000,260.000000) scale(0.100000,-0.100000)"
fill="#000000" stroke="none">
<path d="M149 2108 c-14 -5 -31 -19 -37 -31 -19 -37 -112 -772 -112 -879 0
-105 7 -118 63 -118 13 0 182 70 377 155 194 85 355 153 358 150 3 -2 -7 -187
-21 -411 -16 -251 -22 -415 -17 -430 14 -36 41 -44 173 -51 140 -7 171 -2 188
29 17 31 99 1344 86 1381 -10 31 -34 47 -71 47 -13 0 -172 -66 -353 -146 -180
-80 -333 -148 -339 -150 -6 -3 -2 56 13 163 27 204 28 215 5 243 -17 21 -24
23 -257 53 -16 3 -42 0 -56 -5z"/>
<path d="M1812 2113 c-7 -3 -45 -69 -84 -146 l-70 -142 -43 85 c-49 97 -73
123 -113 122 -15 0 -75 -23 -133 -51 -106 -51 -129 -72 -129 -121 0 -10 81
-181 179 -378 159 -318 183 -361 208 -370 57 -19 84 4 146 124 l56 109 14 -35
c8 -19 27 -68 41 -107 36 -96 54 -117 99 -117 19 0 42 6 50 13 9 7 41 58 73
114 74 133 77 136 85 106 13 -45 9 -180 -7 -252 -20 -89 -64 -197 -123 -301
-45 -82 -54 -123 -31 -151 7 -8 57 -42 112 -75 99 -60 138 -71 169 -47 40 30
138 211 183 335 52 145 61 204 61 392 l-1 175 -97 310 c-137 438 -126 415
-200 415 -44 0 -58 -17 -143 -167 -38 -67 -72 -119 -75 -115 -4 4 -28 65 -54
135 -29 76 -55 132 -66 137 -18 10 -85 12 -107 3z"/>
</g>
</svg>
